# xmcd
#
# Track frame offsets:
#	151
#	20298
#	35797
#	55977
#	76989
#	98092
#	113453
#	127010
#	141813
#	160009
#	178332
#	201426
#	220663
#	235435
#	257577
#
# Disc length: 3683 seconds
#
# Revision: 0
# Processed by: cddbd v1.4PL0 Copyright (c) Steve Scherf et al.
# Submitted via: EasyCDDAExtractor 4.6.9.1
#
DISCID=d00e610f
DTITLE=Various Artist - Love Songs
DYEAR=2002
DGENRE=Pop
TTITLE0=Count On Me
TTITLE1=I can't help falling in love with you
TTITLE2=When I fall in love
TTITLE3=Run to you
TTITLE4=Casablanca
TTITLE5=Love you
TTITLE6=Moon River
TTITLE7=Blue love
TTITLE8=Don't cry for me Argetina
TTITLE9=Feeling
TTITLE10=Chains around my heart
TTITLE11=Saving forever for you
TTITLE12=In my life
TTITLE13=Heal the world
TTITLE14=I do it for you
EXTD=
EXTT0=
EXTT1=
EXTT2=
EXTT3=
EXTT4=
EXTT5=
EXTT6=
EXTT7=
EXTT8=
EXTT9=
EXTT10=
EXTT11=
EXTT12=
EXTT13=
EXTT14=
PLAYORDER=
